<svg xmlns="http://www.w3.org/2000/svg" viewBox="0 0 584.323 173.623"><defs><style>.a{fill:#ec2027;}</style></defs><path class="a" d="M30.834,1.26,0,123.449l14.1,16.02L42.717,20.3H67.929l-28.6,120.1,14.824,16.454L87.5,20.3h23.4l-33.7,136.776,14.782,16.505L135.352,1.26Z" transform="translate(0 0.04)"/><path class="a" d="M131.491,34.77l-4.064,16.784h32.206l-4.085,16.98H123.311l-11.781,48.69,40.479,35.445L180.367,34.78H131.491Zm11.2,86.425-12.678-11.347,5.942-24.531h15.37Z" transform="translate(3.521 1.098)"/><path class="a" d="M197.874,146.6l10.955-5.013L234.784,34.77H184.412L164.08,118.688l13.771,12.121,18.971-78.317h16.949L192.036,142Z" transform="translate(5.18 1.098)"/><path class="a" d="M240.4,34.77,225.752,92.981l12.41,16.371,17.619.65-3.827,16-55.633,26.46-2.992,15.7L266.375,135.5,290.762,34.77Zm18.991,59.81-10.553.01-4.828-6.241,9.078-36.786h16.959Z" transform="translate(6.104 1.098)"/><path class="a" d="M328.946,34.77l-21.271,87.58-13.792-12.1,18.125-75.48H295.317L275.17,117.78l42.717,35.259L346.606,34.77Z" transform="translate(8.687 1.098)"/><path class="a" d="M392.262,0l-8.614,35.868h-32.69l-20.2,83.01,41.779,35.249L406.983,12.606ZM362.305,123.52,349.04,112.327,363.461,53.58h15.8Z" transform="translate(10.442)"/><path class="a" d="M417.418,123.31l-14.112-11.141,6.53-27.037h32.546L454.751,34.77H405.318L384.8,119.647,426.022,153.6l12.492-51.671H422.586Zm.732-71.746H433.8l-4.291,17.722H413.674Z" transform="translate(12.148 1.098)"/><path class="a" d="M458.512,34.77,438.18,118.709l42.9,34.32L509.812,34.77h-51.3Zm13.3,87.714L457.419,112.2l14.648-59.707H488.81Z" transform="translate(13.834 1.098)"/><path class="a" d="M514.462,34.77,494.13,118.709l42.9,34.32L565.762,34.77h-51.3Zm13.3,87.714L513.369,112.2l14.648-59.707H544.76Z" transform="translate(15.6 1.098)"/><path class="a" d="M157.915,12.2,144.67,1.26l-4.24,16.866L154.119,29Z" transform="translate(4.433 0.04)"/><path class="a" d="M183.275,12.2,170.029,1.26,165.8,18.126,179.489,29Z" transform="translate(5.234 0.04)"/><path class="a" d="M486.325,12.2,473.08,1.26l-4.24,16.866L482.529,29Z" transform="translate(14.802 0.04)"/><path class="a" d="M511.685,12.2,498.439,1.26,494.21,18.126,507.9,29Z" transform="translate(15.603 0.04)"/><path class="a" d="M541.6,12.2,528.37,1.26l-4.24,16.866L537.819,29Z" transform="translate(16.547 0.04)"/><path class="a" d="M566.975,12.2,553.729,1.26,549.5,18.126,563.189,29Z" transform="translate(17.348 0.04)"/></svg>